<?xml version="1.0" encoding="UTF-8" standalone="no"?>
<svg
   xmlns:dc="http://purl.org/dc/elements/1.1/"
   xmlns:cc="http://creativecommons.org/ns#"
   xmlns:rdf="http://www.w3.org/1999/02/22-rdf-syntax-ns#"
   xmlns:svg="http://www.w3.org/2000/svg"
   xmlns="http://www.w3.org/2000/svg"
   xmlns:sodipodi="http://sodipodi.sourceforge.net/DTD/sodipodi-0.dtd"
   xmlns:inkscape="http://www.inkscape.org/namespaces/inkscape"
   width="100"
   height="100"
   viewBox="0 0 26.458333 26.458334"
   version="1.1"
   id="svg8"
   inkscape:version="1.0.2 (394de47547, 2021-03-26)"
   sodipodi:docname="focus.svg">
  <defs
     id="defs2">
    <inkscape:path-effect
       effect="spiro"
       id="path-effect39"
       is_visible="true"
       lpeversion="1" />
  </defs>
  <sodipodi:namedview
     id="base"
     pagecolor="#ffffff"
     bordercolor="#666666"
     borderopacity="1.0"
     inkscape:pageopacity="0.0"
     inkscape:pageshadow="2"
     inkscape:zoom="3.959798"
     inkscape:cx="46.363534"
     inkscape:cy="66.999957"
     inkscape:document-units="mm"
     inkscape:current-layer="layer1"
     inkscape:document-rotation="0"
     showgrid="true"
     units="px"
     inkscape:window-width="1366"
     inkscape:window-height="702"
     inkscape:window-x="0"
     inkscape:window-y="34"
     inkscape:window-maximized="1">
    <inkscape:grid
       type="xygrid"
       id="grid10" />
  </sodipodi:namedview>
  <metadata
     id="metadata5">
    <rdf:RDF>
      <cc:Work
         rdf:about="">
        <dc:format>image/svg+xml</dc:format>
        <dc:type
           rdf:resource="http://purl.org/dc/dcmitype/StillImage" />
        <dc:title />
      </cc:Work>
    </rdf:RDF>
  </metadata>
  <g
     inkscape:label="Layer 1"
     inkscape:groupmode="layer"
     id="layer1">
    <path
       id="path37"
       style="fill:#ffffff;stroke:none;stroke-width:0.999999px;stroke-linecap:butt;stroke-linejoin:miter;stroke-opacity:1"
       d="M 50 10 C 43.455015 10 36.950268 12.694262 32.322266 17.322266 C 27.694262 21.950269 25 28.455015 25 35 C 25 41.544986 27.694262 48.049733 32.322266 52.677734 C 36.950268 57.305739 43.455015 60 50 60 C 56.544985 60 63.049729 57.305739 67.677734 52.677734 C 72.305736 48.049733 75 41.544987 75 35 C 75 28.455016 72.305736 21.950269 67.677734 17.322266 C 63.049729 12.694262 56.544985 10 50 10 z M 44.498047 15 L 45.501953 15 C 45.501957 15 45.504942 16.142694 46.070312 17.273438 C 46.635684 18.40418 47.66471 19.503906 49.998047 19.503906 C 52.331376 19.503906 53.358456 18.40418 53.923828 17.273438 C 54.4892 16.142694 54.5 15 54.5 15 L 55.496094 15 C 55.496094 15 55.510803 16.355353 54.826172 17.724609 C 54.186992 19.002972 52.843757 20.296465 50.5 20.464844 L 50.5 33.794922 L 59.923828 24.371094 C 58.381769 22.594359 58.352294 20.734137 58.804688 19.376953 C 59.288791 17.924637 60.251953 16.970703 60.251953 16.970703 L 60.958984 17.671875 C 60.958984 17.671875 60.155635 18.488165 59.755859 19.6875 C 59.35608 20.886834 59.309069 22.393053 60.958984 24.042969 C 62.608899 25.692884 64.107306 25.645872 65.306641 25.246094 C 66.505975 24.846315 67.322266 24.042969 67.322266 24.042969 L 68.03125 24.744141 C 68.03125 24.744141 67.077317 25.707301 65.625 26.191406 C 64.268907 26.643438 62.405202 26.612586 60.628906 25.074219 L 51.199219 34.503906 L 64.537109 34.503906 C 64.703134 32.156132 65.999517 30.817625 67.279297 30.177734 C 68.648555 29.493106 70.001953 29.498047 70.001953 29.498047 L 70.001953 30.501953 C 70.001953 30.501953 68.851447 30.504942 67.720703 31.070312 C 66.589959 31.635684 65.5 32.664714 65.5 34.998047 C 65.5 37.33138 66.589959 38.358456 67.720703 38.923828 C 68.851447 39.4892 70.001953 39.5 70.001953 39.5 L 70.001953 40.496094 C 70.001953 40.496094 68.648555 40.510803 67.279297 39.826172 C 66.000925 39.186986 64.70547 37.843796 64.537109 35.5 L 51.205078 35.5 L 60.628906 44.921875 C 61.454066 44.207821 62.296302 43.804333 63.099609 43.642578 C 64.025624 43.456115 64.898843 43.562635 65.625 43.804688 C 67.077317 44.288791 68.03125 45.251953 68.03125 45.251953 L 67.322266 45.958984 C 67.322266 45.958984 66.505975 45.155635 65.306641 44.755859 C 64.107306 44.35608 62.608899 44.309069 60.958984 45.958984 C 59.309069 47.608899 59.35608 49.107306 59.755859 50.306641 C 60.155635 51.505975 60.958984 52.322266 60.958984 52.322266 L 60.251953 53.03125 C 60.251953 53.03125 59.288791 52.077317 58.804688 50.625 C 58.352613 49.268776 58.383064 47.405357 59.921875 45.628906 L 50.5 36.205078 L 50.5 49.537109 C 52.843795 49.70547 54.186986 51.000925 54.826172 52.279297 C 55.510803 53.648555 55.496094 55.001953 55.496094 55.001953 L 54.5 55.001953 C 54.5 55.001953 54.4892 53.851443 53.923828 52.720703 C 53.358456 51.589959 52.331376 50.5 49.998047 50.5 C 47.66471 50.5 46.635684 51.589959 46.070312 52.720703 C 45.504942 53.851443 45.501953 55.001953 45.501953 55.001953 L 44.498047 55.001953 C 44.498043 55.001953 44.493107 53.648555 45.177734 52.279297 C 45.817624 50.999517 47.156131 49.703134 49.503906 49.537109 L 49.503906 36.199219 L 40.074219 45.628906 C 41.612586 47.405202 41.643437 49.268907 41.191406 50.625 C 40.707298 52.077317 39.744141 53.03125 39.744141 53.03125 L 39.042969 52.322266 C 39.042969 52.322266 39.846314 51.505975 40.246094 50.306641 C 40.645869 49.107306 40.692884 47.608899 39.042969 45.958984 C 37.393052 44.309069 35.886834 44.35608 34.6875 44.755859 C 33.488166 45.155639 32.671875 45.958984 32.671875 45.958984 L 31.970703 45.251953 C 31.970703 45.251953 32.924637 44.288791 34.376953 43.804688 C 35.103111 43.562635 35.968516 43.456115 36.894531 43.642578 C 37.699021 43.804571 38.542828 44.209705 39.369141 44.925781 L 48.794922 35.5 L 35.464844 35.5 C 35.296465 37.843758 34.002972 39.186992 32.724609 39.826172 C 31.355353 40.510803 30 40.496094 30 40.496094 L 30 39.5 C 30 39.5 31.142694 39.4892 32.273438 38.923828 C 33.40418 38.358456 34.503906 37.33138 34.503906 34.998047 C 34.503907 32.664713 33.40418 31.635684 32.273438 31.070312 C 31.142694 30.504942 30 30.501953 30 30.501953 L 30 29.498047 C 30 29.498047 31.355353 29.493106 32.724609 30.177734 C 34.004404 30.817632 35.300793 32.15609 35.466797 34.503906 L 48.800781 34.503906 L 39.369141 25.070312 C 37.592601 26.611814 35.733973 26.643746 34.376953 26.191406 C 32.924637 25.707301 31.970703 24.744141 31.970703 24.744141 L 32.671875 24.042969 C 32.671875 24.042969 33.488166 24.846316 34.6875 25.246094 C 35.886834 25.645872 37.393053 25.692885 39.042969 24.042969 C 40.692884 22.393054 40.645869 20.886834 40.246094 19.6875 C 39.846314 18.488166 39.042969 17.671875 39.042969 17.671875 L 39.744141 16.970703 C 39.744141 16.970703 40.707298 17.924638 41.191406 19.376953 C 41.643745 20.733972 41.611814 22.592602 40.070312 24.369141 L 49.503906 33.800781 L 49.503906 20.466797 C 47.156088 20.300793 45.817631 19.004404 45.177734 17.724609 C 44.493107 16.355353 44.498047 15 44.498047 15 z "
       transform="scale(0.26458333)" />
    <path
       style="fill:none;stroke:#ffffff;stroke-width:0.264583px;stroke-linecap:butt;stroke-linejoin:miter;stroke-opacity:1"
       d="m 13.229167,15.875 v 7.9375"
       id="path41" />
    <path
       style="fill:#ffffff;stroke:none;stroke-width:0.264583px;stroke-linecap:butt;stroke-linejoin:miter;stroke-opacity:1"
       d="m 13.229167,23.8125 c 0,0 0.935444,-2.806331 2.80633,-4.677217 1.870887,-1.870887 4.677216,-2.80633 4.677216,-2.80633 0,0 -0.935442,2.80633 -2.806329,4.677216 -1.870886,1.870887 -4.677217,2.806331 -4.677217,2.806331 z"
       id="path80" />
  </g>
</svg>
